<svg xmlns="http://www.w3.org/2000/svg" width="42" height="42" viewBox="0 0 42 42">
    <g fill="none" fill-rule="evenodd">
        <path fill="red" fill-rule="nonzero" d="M42.586 17.885c-.646-.476-1.46-1.07-1.558-1.46.041-.752.256-1.485.628-2.14.57-1.307 1.157-2.66.503-3.787-.653-1.126-2.138-1.308-3.567-1.46-.74-.005-1.47-.179-2.133-.509-.331-.665-.505-1.397-.508-2.14-.16-1.43-.326-2.907-1.46-3.568-1.133-.66-2.489-.082-3.795.495-.657.37-1.39.586-2.143.627-.394-.105-.987-.912-1.46-1.558-.828-1.117-1.76-2.383-3.107-2.383-1.347 0-2.28 1.266-3.103 2.383-.478.648-1.07 1.46-1.46 1.56-.752-.045-1.484-.26-2.142-.628-1.314-.578-2.668-1.155-3.79-.505-1.122.65-1.31 2.139-1.47 3.577-.006.74-.18 1.47-.508 2.133-.662.325-1.389.496-2.126.5-1.43.16-2.91.327-3.57 1.46-.658 1.133-.08 2.487.497 3.796.373.657.587 1.393.628 2.147-.106.395-.913.99-1.559 1.46C4.266 18.707 3 19.641 3 20.988c0 1.346 1.266 2.28 2.385 3.102.646.476 1.46 1.071 1.559 1.46-.042.752-.257 1.485-.628 2.14-.57 1.307-1.157 2.66-.504 3.787.653 1.126 2.139 1.308 3.568 1.46.74.005 1.47.179 2.133.509.33.665.504 1.398.507 2.14.16 1.43.327 2.907 1.46 3.568 1.133.66 2.478.066 3.787-.504.663-.367 1.4-.579 2.157-.62.394.106.987.912 1.46 1.558.823 1.117 1.755 2.384 3.102 2.384s2.28-1.267 3.102-2.384c.478-.647 1.071-1.46 1.46-1.56.753.043 1.486.258 2.142.628 1.307.57 2.661 1.153 3.785.505 1.124-.647 1.31-2.138 1.471-3.569.005-.74.179-1.47.507-2.133.663-.328 1.392-.501 2.132-.506 1.43-.16 2.91-.326 3.57-1.46.658-1.133.063-2.478-.504-3.786-.372-.661-.584-1.4-.62-2.157.105-.394.912-.99 1.558-1.46 1.116-.823 2.385-1.757 2.385-3.102s-1.269-2.281-2.388-3.103z" transform="translate(-3)"/>
        <path fill="#FFF" d="M3 14.28H45V27.72H3z" transform="translate(-3)"/>
        <path fill="#000" fill-rule="nonzero" d="M4.453 24.36v-1.155h-2.56v-1.478h2.292V20.58H1.894v-1.294h2.43v-1.155H.48v6.228h3.973zm2.7 0l.517-1.127c.194-.435.352-.758.48-1.118h.02c.175.36.323.683.554 1.118l.563 1.127h1.627l-1.848-3.188 1.755-3.04H9.213l-.526 1.137c-.157.36-.277.637-.425 1.035h-.019c-.148-.351-.286-.656-.471-1.035l-.545-1.137H5.61l1.737 3.077-1.802 3.151h1.608zm8.114.092c.758 0 1.34-.138 1.599-.268l-.213-1.1c-.277.112-.748.204-1.173.204-1.257 0-1.996-.785-1.996-2.033 0-1.386.869-2.06 1.987-2.06.499 0 .896.11 1.182.23l.287-1.117c-.25-.13-.804-.277-1.534-.277-1.885 0-3.4 1.182-3.4 3.308 0 1.774 1.108 3.113 3.261 3.113zm6.655-.092v-1.183h-2.476v-5.045h-1.414v6.228h3.89zm3.587.102c1.626 0 2.596-.915 2.596-2.837v-3.493h-1.404v3.585c0 1.1-.407 1.617-1.146 1.617-.72 0-1.127-.545-1.127-1.617v-3.585h-1.414v3.474c0 1.987.924 2.856 2.495 2.856zm5.453-.01c1.71 0 2.513-.887 2.513-1.93 0-.879-.517-1.451-1.617-1.858-.804-.305-1.155-.48-1.155-.878 0-.323.296-.6.906-.6.61 0 1.053.175 1.303.295l.314-1.136c-.37-.167-.887-.314-1.59-.314-1.469 0-2.356.813-2.356 1.875 0 .906.675 1.479 1.71 1.84.748.267 1.044.489 1.044.877 0 .406-.342.674-.989.674-.6 0-1.183-.194-1.561-.388l-.287 1.165c.351.194 1.053.378 1.765.378zm5.019-.092v-6.228h-1.414v6.228h1.414zm4.732 0l2.098-6.228h-1.497l-.795 2.661c-.212.712-.406 1.451-.563 2.2h-.028c-.148-.777-.342-1.488-.554-2.227l-.758-2.634h-1.543l1.996 6.228h1.644zm7.163 0v-1.155h-2.56v-1.478h2.292V20.58h-2.291v-1.294h2.43v-1.155h-3.844v6.228h3.973z" transform="translate(-3)"/>
    </g>
</svg>
