<svg xmlns="http://www.w3.org/2000/svg" width="190" height="24" viewBox="0 0 190 24">
    <g fill="none" fill-rule="evenodd">
        <text fill="#262626" font-family="Montserrat-MediumItalic, Montserrat" font-size="14" font-style="italic" font-weight="500">
            <tspan x="34" y="17">Authentic Indigenous</tspan>
        </text>
        <g fill-rule="nonzero">
            <path fill="#FC5271" d="M3.732 20.268S.165 14.558 5.923 8.799l1.658-1.657C12.024 2.699 17.617-.381 23.32.678l.001.001c1.06 5.703-2.02 11.296-6.463 15.739l-1.657 1.658c-5.758 5.758-11.469 2.191-11.469 2.191z"/>
            <path fill="#389BE8" d="M23.321.68L23.32.679c-2.058-.383-4.101-.226-6.081.34l-.228.227c-3.43 3.43-1.306 6.833-1.306 6.833s3.403 2.125 6.834-1.306l.597-.597c.436-1.796.53-3.64.185-5.496z"/>
            <path fill="#A0E070" d="M12.174 11.827S9.227 7.11 13.955 2.34c-2.286 1.189-4.44 2.865-6.375 4.8L5.923 8.8C.165 14.557 3.732 20.268 3.732 20.268s5.71 3.567 11.469-2.191l1.657-1.658c1.936-1.935 3.612-4.089 4.8-6.375-4.768 4.728-9.484 1.783-9.484 1.783z"/>
            <path fill="#CA6CD8" d="M7.994 16.006S4.865 10.999 9.196 5.634c-.554.48-1.093.984-1.616 1.507L5.923 8.8C.165 14.557 3.732 20.268 3.732 20.268s5.71 3.567 11.469-2.191l1.657-1.658c.524-.523 1.027-1.062 1.508-1.616-5.365 4.33-10.372 1.203-10.372 1.203z"/>
            <path fill="#452650" d="M23.782.595c-.017-.095-.065-.183-.134-.25l-.016-.016c-.064-.057-.142-.095-.227-.111-2.782-.517-5.682-.113-8.619 1.2C12.21 2.572 9.675 4.386 7.25 6.81L5.592 8.468C4.229 9.83 3.259 11.31 2.71 12.864c-.443 1.253-.614 2.553-.51 3.866.133 1.65.666 2.892.952 3.455l-1.358 1.357c-.556-1.213-1.626-4.344.032-7.934.109-.235.006-.514-.23-.622-.234-.109-.513-.006-.621.229-1.217 2.636-1.075 5.033-.74 6.58.247 1.152.631 2.01.857 2.45l-.739.738c-.183.183-.183.48 0 .663.092.091.212.137.332.137.12 0 .24-.046.331-.137l.739-.738c.44.225 1.297.61 2.45.858.61.132 1.356.234 2.195.234 1.285 0 2.791-.239 4.385-.975.235-.108.338-.387.23-.622-.11-.235-.388-.338-.623-.23-1.915.885-3.918 1.115-5.953.684-.86-.182-1.545-.45-1.982-.651l1.358-1.358c.562.286 1.805.819 3.455.951.25.02.5.03.749.03 1.058 0 2.103-.18 3.117-.539 1.554-.549 3.033-1.518 4.396-2.882l1.658-1.658c2.425-2.425 4.239-4.96 5.391-7.536 1.314-2.937 1.718-5.837 1.201-8.62zm-1.227 5.909c-.026.017-.05.037-.074.06-1.355 1.356-2.85 1.985-4.446 1.87-.609-.043-1.12-.192-1.477-.33l6.433-6.433c.166 1.572.016 3.194-.436 4.833zm-6.764-4.483c-.358.515-.636 1.05-.832 1.6-.086.245.041.512.285.6.052.017.105.026.157.026.193 0 .374-.12.442-.312.3-.847.836-1.66 1.593-2.416.023-.023.043-.048.06-.075 1.639-.452 3.26-.601 4.832-.436l-6.433 6.433c-.086-.224-.177-.508-.243-.839-.05-.254-.298-.418-.552-.368-.254.05-.418.298-.368.552.12.601.31 1.075.449 1.37l-2.943 2.943c-.204-.48-.46-1.247-.53-2.19-.158-2.154.686-4.171 2.51-5.996l.347-.347c.409-.2.818-.381 1.226-.545zM8.098 15.238c-.222-.49-.52-1.291-.673-2.305-.344-2.302.213-4.512 1.658-6.572 1.01-.912 2.033-1.712 3.064-2.399-1.274 1.935-1.474 3.757-1.37 5.065.104 1.299.512 2.291.753 2.78l-3.432 3.431zm-4.966 1.375c-.202-2.691.849-5.208 3.123-7.482l.699-.699c-.644 1.811-.635 3.441-.456 4.64.204 1.358.646 2.375.898 2.869l-3.54 3.54c-.261-.582-.628-1.597-.724-2.868zm11.737 1.132c-2.274 2.274-4.79 3.324-7.482 3.123-1.272-.096-2.287-.463-2.868-.724l3.54-3.54c.4.204 1.147.535 2.142.761.035.008.07.012.105.012.214 0 .407-.147.456-.365.058-.252-.1-.503-.353-.56-.701-.16-1.267-.38-1.647-.551l3.43-3.431c.454.223 1.341.59 2.504.725.018.002.036.004.055.004.234 0 .437-.176.465-.415.03-.257-.155-.49-.412-.52-.812-.094-1.474-.32-1.903-.502l2.942-2.943c.401.19 1.136.472 2.076.547.147.012.302.018.465.018.994 0 2.265-.253 3.595-1.176-.164.409-.346.818-.546 1.227l-.346.346c-1.08 1.08-2.245 1.823-3.463 2.21-.247.08-.383.343-.305.59.064.199.248.326.447.326.047 0 .095-.007.142-.022.732-.232 1.443-.578 2.129-1.03-.687 1.03-1.488 2.055-2.4 3.065-1.287.902-2.654 1.463-4.063 1.665-.256.037-.434.275-.397.531.033.234.234.402.463.402.022 0 .045-.001.068-.005.627-.09 1.247-.245 1.855-.462l-.694.694z"/>
            <path fill="#000" d="M16.352 13.206c.016 0 .032 0 .049-.002l.012-.002c.257-.028.443-.26.415-.517-.029-.257-.261-.443-.517-.415l-.007.001h-.003c-.257.027-.443.257-.416.515.025.241.23.42.467.42zM11.982 16.71h-.016c-.259 0-.468.21-.468.468 0 .259.21.469.468.469H11.975c.256 0 .465-.205.469-.462.004-.259-.203-.472-.462-.476zM15.057 5.744l.043.001c.24 0 .444-.183.466-.426V5.31c.024-.258-.166-.486-.424-.509-.258-.023-.486.167-.509.425v.007c-.024.258.166.486.424.51z"/>
        </g>
    </g>
</svg>
