<svg xmlns="http://www.w3.org/2000/svg" width="104" height="24" viewBox="0 0 104 24">
    <g fill="none" fill-rule="evenodd">
        <path fill="#FFB50D" fill-rule="nonzero" d="M23.68 13.313l-.37-.494c-.405-.541-.41-1.275-.011-1.823l.362-.5c.553-.764.295-1.835-.547-2.28l-.553-.29c-.602-.318-.934-.974-.817-1.636l.104-.608c.16-.926-.547-1.781-1.505-1.817l-.627-.024c-.683-.03-1.273-.482-1.463-1.125l-.172-.59c-.264-.903-1.278-1.372-2.163-1l-.578.242c-.627.264-1.358.108-1.82-.392L13.104.52c-.64-.698-1.764-.692-2.39.018L10.3 1c-.448.506-1.18.674-1.813.422l-.577-.235c-.885-.361-1.893.126-2.145 1.03l-.166.589c-.178.644-.762 1.107-1.445 1.15l-.626.035c-.96.054-1.654.921-1.475 1.842l.11.602c.123.661-.196 1.323-.793 1.648l-.547.301c-.841.458-1.081 1.529-.516 2.287l.369.493c.406.542.412 1.276.012 1.824l-.362.5c-.553.764-.295 1.835.547 2.28l.553.289c.602.319.934.975.817 1.637l-.104.608c-.16.926.547 1.78 1.505 1.817l.627.024c.682.03 1.272.481 1.463 1.125l.172.59c.264.903 1.278 1.372 2.163.999l.578-.24c.627-.266 1.358-.11 1.82.39l.417.458c.64.698 1.764.692 2.39-.018l.413-.464c.448-.505 1.18-.674 1.813-.42l.577.234c.885.36 1.893-.127 2.145-1.03l.166-.589c.178-.644.762-1.107 1.444-1.15l.627-.035c.959-.055 1.653-.921 1.475-1.842l-.11-.602c-.123-.662.196-1.324.792-1.649l.547-.3c.842-.452 1.082-1.529.517-2.287zm-11.696 6.499c-4.406 0-7.99-3.508-7.99-7.823s3.584-7.823 7.99-7.823c4.407 0 7.99 3.508 7.99 7.823s-3.583 7.823-7.99 7.823z"/>
        <ellipse cx="11.985" cy="11.75" fill="#FFB50D" rx="8.426" ry="8.25"/>
        <path fill="#FFF" fill-rule="nonzero" d="M18.65 6.725h-2.222V6H7.543v.725H5.32c-.444 0-.74.29-.74.725v1.74c0 1.667 1.259 3.045 2.962 3.262v.073c0 2.102 1.48 3.842 3.48 4.277l-.519 1.523H8.801c-.296 0-.592.217-.666.507L7.543 20.5h8.885l-.593-1.668c-.074-.29-.37-.507-.666-.507h-1.703l-.518-1.523c1.999-.435 3.48-2.175 3.48-4.277v-.073c1.703-.217 2.962-1.595 2.962-3.262V7.45c0-.435-.297-.725-.74-.725zM7.542 11.002c-.815-.217-1.481-.942-1.481-1.812V8.175h1.48v2.827zm5.923 2.248l-1.48-.798-1.482.798.37-1.45-1.11-1.45h1.555l.666-1.45.667 1.45h1.555l-1.111 1.45.37 1.45zm4.443-4.06c0 .87-.667 1.667-1.481 1.812V8.175h1.48V9.19z"/>
        <text fill="#262626" font-family="Montserrat-MediumItalic, Montserrat" font-size="14" font-style="italic" font-weight="500">
            <tspan x="34" y="17">Bestseller</tspan>
        </text>
    </g>
</svg>
