<?xml version="1.0" encoding="UTF-8"?>
<svg width="127px" height="24px" viewBox="0 0 127 24" version="1.1" xmlns="http://www.w3.org/2000/svg" xmlns:xlink="http://www.w3.org/1999/xlink">
    <title>93D1EB4A-F22F-45FA-A7CB-F8D2497F8608</title>
    <g id="ICraft" stroke="none" stroke-width="1" fill="none" fill-rule="evenodd">
        <g id="More-pop-up" transform="translate(-1580.000000, -755.000000)" fill-rule="nonzero">
            <g id="More" transform="translate(0.000000, 220.000000)">
                <g id="Elements/Statuses/new" transform="translate(1580.000000, 535.000000)">
                    <path d="M23.4562179,2.17578622 C20.551727,2.17578622 16.4483602,2.42106942 14.351413,4.53637272 C13.4435329,5.45269134 12.9901803,6.9464593 13.1078865,8.63719631 C13.1231617,8.86051385 13.2702944,9.05077977 13.4816954,9.12121426 C13.6920236,9.19051436 13.9230935,9.12559708 14.0669565,8.95513118 C15.2331362,7.57021183 16.6826485,6.46032729 18.3785058,5.65620884 C18.5223689,5.58690874 18.6923889,5.58139154 18.8471336,5.63640881 C18.9833846,5.68590889 19.090158,5.77939185 19.1457414,5.89932641 C19.2612508,6.14574398 19.2242122,6.4702273 18.8405944,6.6528104 C18.8187799,6.66379323 18.7991622,6.67812763 18.7773989,6.68802764 C18.7697868,6.69132765 18.7610508,6.69024483 18.7545116,6.69354484 C14.5759436,8.67576512 12.5215526,12.1341705 11.5885884,15.6904417 C10.9085084,11.2376519 9.47207462,8.61631347 8.1151844,7.00704533 C7.13322706,5.72226051 6.16756671,5.04132507 5.60958647,4.65635884 C5.50603164,4.58484155 5.19327253,4.3692584 5.06356077,4.238341 C4.8510358,4.02384067 4.8510358,3.67512294 5.06356077,3.4606226 C5.27608575,3.24720508 5.62266493,3.24720508 5.85915006,3.48480545 C5.91693028,3.53652272 6.00955235,3.60252282 6.12725849,3.68172295 L6.22427409,3.74772305 C7.01332415,4.29330671 8.48250521,5.3064083 9.78595766,7.4877117 C9.90259095,7.68241201 10.1281944,7.78692936 10.3472586,7.74511211 C10.5695924,7.70551205 10.7439548,7.53282896 10.7875838,7.30951143 C11.0720403,5.84322632 10.9445253,3.66738855 9.64868491,2.35950369 C7.55178886,0.245283204 3.44842206,0 0.545003948,0 C0.244148282,0 0,0.246366018 0,0.549966492 C0,3.48145388 0.243024351,7.62296035 2.33884756,9.73939803 C3.2129076,10.6215822 4.56111291,11.0175828 5.90053112,11.0175828 C6.99365537,11.0175828 8.06501624,10.7414652 8.8856896,10.2629645 C10.0049708,12.6037509 10.8986996,16.1006736 10.8986996,21.449982 C10.8986996,21.7535824 11.1428479,22 11.4436525,22 C11.744457,22 11.9886053,21.7535824 11.9886053,21.449982 C11.9886053,18.4656945 12.4953956,14.8840545 14.3797667,11.9360671 C15.1350478,12.6807854 16.4352817,13.1526862 17.876058,13.1966691 C17.9479895,13.1988863 18.0188482,13.1999691 18.0896558,13.1999691 C19.5533705,13.1999691 20.8470141,12.7368855 21.6611482,11.9140499 C23.7580442,9.79766375 24,5.65615728 24,2.72461833 C24.0011708,2.42106942 23.7580953,2.17578622 23.4562179,2.17578622 Z" id="Path" fill="#36C747"></path>
                    <path d="M41.854,16 L42.092,14.782 L36.366,14.782 L36.996,11.618 L41.924,11.618 L42.162,10.428 L37.234,10.428 L37.836,7.418 L43.366,7.418 L43.604,6.2 L36.688,6.2 L34.728,16 L41.854,16 Z M48.896,16.112 C49.6986667,16.112 50.4336667,15.986 51.101,15.734 C51.7683333,15.482 52.326,15.1133333 52.774,14.628 L52.774,14.628 L51.962,13.704 C51.1873333,14.4786667 50.198,14.866 48.994,14.866 C47.9113333,14.866 47.0783333,14.5976667 46.495,14.061 C45.9116667,13.5243333 45.62,12.8033333 45.62,11.898 C45.62,11.0673333 45.8043333,10.3043333 46.173,9.609 C46.5416667,8.91366667 47.0666667,8.36066667 47.748,7.95 C48.4293333,7.53933333 49.2226667,7.334 50.128,7.334 C51.332,7.334 52.228,7.71666667 52.816,8.482 L52.816,8.482 L53.824,7.614 C53.488,7.12866667 53.0073333,6.753 52.382,6.487 C51.7566667,6.221 51.038,6.088 50.226,6.088 C49.0313333,6.088 47.979,6.34933333 47.069,6.872 C46.159,7.39466667 45.4566667,8.104 44.962,9 C44.4673333,9.896 44.22,10.89 44.22,11.982 C44.22,12.8033333 44.4066667,13.5243333 44.78,14.145 C45.1533333,14.7656667 45.69,15.2486667 46.39,15.594 C47.09,15.9393333 47.9253333,16.112 48.896,16.112 Z M58.948,16.112 C60.124,16.112 61.1646667,15.8506667 62.07,15.328 C62.9753333,14.8053333 63.6753333,14.096 64.17,13.2 C64.6646667,12.304 64.912,11.31 64.912,10.218 C64.912,9.39666667 64.73,8.67566667 64.366,8.055 C64.002,7.43433333 63.4723333,6.95133333 62.777,6.606 C62.0816667,6.26066667 61.2533333,6.088 60.292,6.088 C59.116,6.088 58.0776667,6.34933333 57.177,6.872 C56.2763333,7.39466667 55.5786667,8.104 55.084,9 C54.5893333,9.896 54.342,10.89 54.342,11.982 C54.342,12.8033333 54.524,13.5243333 54.888,14.145 C55.252,14.7656667 55.7793333,15.2486667 56.47,15.594 C57.1606667,15.9393333 57.9866667,16.112 58.948,16.112 Z M59.074,14.866 C58.01,14.866 57.1886667,14.5976667 56.61,14.061 C56.0313333,13.5243333 55.742,12.8033333 55.742,11.898 C55.742,11.0766667 55.9263333,10.316 56.295,9.616 C56.6636667,8.916 57.184,8.36066667 57.856,7.95 C58.528,7.53933333 59.3026667,7.334 60.18,7.334 C61.244,7.334 62.063,7.60233333 62.637,8.139 C63.211,8.67566667 63.498,9.39666667 63.498,10.302 C63.498,11.1326667 63.316,11.8956667 62.952,12.591 C62.588,13.2863333 62.07,13.8393333 61.398,14.25 C60.726,14.6606667 59.9513333,14.866 59.074,14.866 Z M69.742,12.738 L69.98,11.576 L66.214,11.576 L65.99,12.738 L69.742,12.738 Z M72.696,16 L73.97,9.686 L76.084,9.686 L76.308,8.58 L74.152,8.58 L74.278,7.992 C74.3806667,7.52533333 74.5486667,7.18233333 74.782,6.963 C75.0153333,6.74366667 75.3326667,6.634 75.734,6.634 C76.1353333,6.634 76.4666667,6.75066667 76.728,6.984 L76.728,6.984 L77.288,5.99 C77.1106667,5.84066667 76.8843333,5.72633333 76.609,5.647 C76.3336667,5.56766667 76.042,5.528 75.734,5.528 C74.978,5.528 74.369,5.731 73.907,6.137 C73.445,6.543 73.1393333,7.124 72.99,7.88 L72.99,7.88 L72.85,8.58 L71.562,8.58 L71.352,9.686 L72.626,9.686 L71.352,16 L72.696,16 Z M77.456,16 L78.198,12.29 C78.5246667,10.6286667 79.458,9.798 80.998,9.798 C81.1473333,9.798 81.264,9.80266667 81.348,9.812 L81.348,9.812 L81.6,8.51 C80.9186667,8.51 80.34,8.60333333 79.864,8.79 C79.388,8.97666667 78.9866667,9.27533333 78.66,9.686 L78.66,9.686 L78.87,8.58 L77.582,8.58 L76.112,16 L77.456,16 Z M84.386,7.152 C84.6753333,7.152 84.911,7.06333333 85.093,6.886 C85.275,6.70866667 85.366,6.47533333 85.366,6.186 C85.366,5.97133333 85.2843333,5.787 85.121,5.633 C84.9576667,5.479 84.7546667,5.402 84.512,5.402 C84.232,5.402 84.001,5.493 83.819,5.675 C83.637,5.857 83.546,6.07866667 83.546,6.34 C83.546,6.564 83.6253333,6.75533333 83.784,6.914 C83.9426667,7.07266667 84.1433333,7.152 84.386,7.152 Z M83.196,16 L84.666,8.58 L83.322,8.58 L81.852,16 L83.196,16 Z M89.3,16.084 C89.8786667,16.084 90.4293333,15.9906667 90.952,15.804 C91.4746667,15.6173333 91.918,15.356 92.282,15.02 L92.282,15.02 L91.708,14.054 C91.4373333,14.3153333 91.1013333,14.523 90.7,14.677 C90.2986667,14.831 89.8693333,14.908 89.412,14.908 C88.628,14.908 88.04,14.7283333 87.648,14.369 C87.256,14.0096667 87.06,13.4846667 87.06,12.794 L87.06,12.794 L87.06,12.71 L93.15,12.71 C93.2153333,12.346 93.248,12.0146667 93.248,11.716 C93.248,10.7266667 92.947,9.945 92.345,9.371 C91.743,8.797 90.938,8.51 89.93,8.51 C89.1366667,8.51 88.4203333,8.69666667 87.781,9.07 C87.1416667,9.44333333 86.6423333,9.96133333 86.283,10.624 C85.9236667,11.2866667 85.744,12.0333333 85.744,12.864 C85.744,13.5173333 85.8886667,14.0866667 86.178,14.572 C86.4673333,15.0573333 86.878,15.4306667 87.41,15.692 C87.942,15.9533333 88.572,16.084 89.3,16.084 Z M91.988,11.73 L87.2,11.73 C87.368,11.0766667 87.69,10.5633333 88.166,10.19 C88.642,9.81666667 89.2113333,9.63 89.874,9.63 C90.546,9.63 91.0756667,9.81433333 91.463,10.183 C91.8503333,10.5516667 92.0253333,11.0673333 91.988,11.73 L91.988,11.73 Z M95.656,16 L96.44,12.08 C96.5986667,11.296 96.9136667,10.7056667 97.385,10.309 C97.8563333,9.91233333 98.456,9.714 99.184,9.714 C99.7533333,9.714 100.182667,9.84466667 100.472,10.106 C100.761333,10.3673333 100.906,10.7406667 100.906,11.226 C100.906,11.3846667 100.882667,11.59 100.836,11.842 L100.836,11.842 L100.01,16 L101.354,16 L102.18,11.842 C102.236,11.534 102.264,11.2446667 102.264,10.974 C102.264,10.19 102.028333,9.58333333 101.557,9.154 C101.085667,8.72466667 100.425333,8.51 99.576,8.51 C98.456,8.51 97.56,8.85066667 96.888,9.532 L96.888,9.532 L97.07,8.58 L95.782,8.58 L94.312,16 L95.656,16 Z M107.108,16.084 C107.630667,16.084 108.113667,15.9976667 108.557,15.825 C109.000333,15.6523333 109.39,15.4073333 109.726,15.09 L109.726,15.09 L109.544,16 L110.832,16 L112.904,5.612 L111.56,5.612 L110.72,9.854 C110.486667,9.41533333 110.139,9.08166667 109.677,8.853 C109.215,8.62433333 108.666667,8.51 108.032,8.51 C107.238667,8.51 106.522333,8.69666667 105.883,9.07 C105.243667,9.44333333 104.742,9.96133333 104.378,10.624 C104.014,11.2866667 103.832,12.038 103.832,12.878 C103.832,13.5313333 103.972,14.1006667 104.252,14.586 C104.532,15.0713333 104.919333,15.4423333 105.414,15.699 C105.908667,15.9556667 106.473333,16.084 107.108,16.084 Z M107.402,14.908 C106.702,14.908 106.158333,14.7236667 105.771,14.355 C105.383667,13.9863333 105.19,13.4753333 105.19,12.822 C105.19,12.2153333 105.316,11.674 105.568,11.198 C105.82,10.722 106.165333,10.351 106.604,10.085 C107.042667,9.819 107.537333,9.686 108.088,9.686 C108.797333,9.686 109.343333,9.868 109.726,10.232 C110.108667,10.596 110.3,11.1093333 110.3,11.772 C110.3,12.3786667 110.176333,12.92 109.929,13.396 C109.681667,13.872 109.336333,14.243 108.893,14.509 C108.449667,14.775 107.952667,14.908 107.402,14.908 Z M114.738,16 L116.81,5.612 L115.466,5.612 L113.394,16 L114.738,16 Z M117.188,18.8 C117.776,18.8 118.284667,18.6553333 118.714,18.366 C119.143333,18.0766667 119.596,17.5586667 120.072,16.812 L120.072,16.812 L125.336,8.58 L123.978,8.58 L120.24,14.516 L118.812,8.58 L117.468,8.58 L119.26,15.958 L118.882,16.546 C118.620667,16.9473333 118.368667,17.232 118.126,17.4 C117.883333,17.568 117.603333,17.652 117.286,17.652 C116.782,17.652 116.362,17.484 116.026,17.148 L116.026,17.148 L115.326,18.142 C115.512667,18.3473333 115.778667,18.5083333 116.124,18.625 C116.469333,18.7416667 116.824,18.8 117.188,18.8 Z" id="ECO-friendly" fill="#262626"></path>
                </g>
            </g>
        </g>
    </g>
</svg>