<?xml version="1.0" encoding="UTF-8"?>
<svg width="117px" height="24px" viewBox="0 0 117 24" version="1.1" xmlns="http://www.w3.org/2000/svg" xmlns:xlink="http://www.w3.org/1999/xlink">
    <title>2DC76828-C612-478E-B6B4-B727A7030972</title>
    <g id="ICraft" stroke="none" stroke-width="1" fill="none" fill-rule="evenodd">
        <g id="More-pop-up" transform="translate(-1301.000000, -798.000000)" fill-rule="nonzero">
            <g id="More" transform="translate(0.000000, 220.000000)">
                <g id="Elements/Statuses/sold" transform="translate(1301.000000, 578.000000)">
                    <g id="calling" transform="translate(2.000000, 0.000000)">
                        <path d="M10.7921512,0 C9.5977718,0 8.63372093,0.942140625 8.63372093,2.109375 C8.63372093,3.27651563 9.5977718,4.21875 10.7921512,4.21875 C11.9865305,4.21875 12.9505814,3.27651563 12.9505814,2.109375 C12.9505814,0.942140625 11.9865305,0 10.7921512,0 Z M10.7921512,2.8125 C10.3891962,2.8125 10.0726744,2.50307813 10.0726744,2.109375 C10.0726744,1.71557813 10.3891962,1.40625 10.7921512,1.40625 C11.1951061,1.40625 11.5116279,1.71557813 11.5116279,2.109375 C11.5116279,2.50307813 11.1951061,2.8125 10.7921512,2.8125 Z" id="Shape" fill="#C90000"></path>
                        <g id="Group" transform="translate(7.914244, 19.500000)" fill="#C90000">
                            <path d="M4.90678343,0.28125 L0.849030523,0.28125 C0.172674419,0.28125 0,1.0546875 0,1.6875 C0,3.23432813 1.2951061,4.5 2.87790698,4.5 C4.46070785,4.5 5.75581395,3.23432813 5.75581395,1.6875 C5.75581395,1.0546875 5.58313953,0.28125 4.90678343,0.28125 Z" id="Path"></path>
                        </g>
                        <path d="M16.3896802,5.06245312 C14.8931206,3.6140625 12.8930712,2.8125 10.7921512,2.8125 C7.03648256,2.8125 3.77005814,5.41401562 3.03619186,8.99995312 C2.94985465,9.43589062 3.28086192,9.84375 3.74127907,9.84375 L17.8430712,9.84375 C18.3034404,9.84375 18.6344956,9.43589062 18.5481584,8.99995312 C18.2314927,7.49526563 17.4976265,6.1453125 16.3896802,5.06245312 Z" id="Path" fill="#FED42D"></path>
                        <g id="Group" transform="translate(1.390988, 8.312500)" fill="#FCBF29">
                            <path d="M18.6824128,9.04995313 C17.7902616,7.30620313 17.315407,5.25776563 17.315407,3.303125 C17.315407,2.13589063 17.3729172,1.23589063 16.9988852,0.125 L9.40116279,0.125 C2.14888517,0.125 1.80344041,0.125 1.80344041,0.125 C1.42940843,1.23589063 1.4869186,2.1359375 1.4869186,3.303125 C1.4869186,5.25776563 1.01201599,7.30620313 0.119912791,9.04995313 C-0.110319767,9.5140625 0.23502907,10.0625 0.76744186,10.0625 L18.0348837,10.0625 C18.5672965,10.0625 18.9126453,9.5140625 18.6824128,9.04995313 Z" id="Path"></path>
                        </g>
                        <path d="M19.4258721,16.96875 L2.15843023,16.96875 C-0.690649709,16.96875 -0.690649709,21.1875 2.15843023,21.1875 L19.4258721,21.1875 C22.274952,21.1875 22.274952,16.96875 19.4258721,16.96875 Z" id="Path" fill="#FED42D"></path>
                    </g>
                    <path d="M35.268,17.112 C36.2106667,17.112 36.9573333,16.867 37.508,16.377 C38.0586667,15.887 38.446,15.0726667 38.67,13.934 L38.67,13.934 L40.014,7.2 L35.114,7.2 L34.862,8.418 L38.404,8.418 L37.298,13.99 C37.158,14.662 36.9246667,15.1496667 36.598,15.453 C36.2713333,15.7563333 35.8373333,15.908 35.296,15.908 C34.8666667,15.908 34.4886667,15.81 34.162,15.614 C33.8353333,15.418 33.5786667,15.138 33.392,14.774 L33.392,14.774 L32.426,15.684 C32.678,16.132 33.049,16.482 33.539,16.734 C34.029,16.986 34.6053333,17.112 35.268,17.112 Z M43.878,17.084 C44.41,17.084 44.9023333,16.9976667 45.355,16.825 C45.8076667,16.6523333 46.202,16.3933333 46.538,16.048 L46.538,16.048 L46.356,17 L47.644,17 L49.114,9.58 L47.77,9.58 L46.986,13.514 C46.8273333,14.2886667 46.5123333,14.8766667 46.041,15.278 C45.5696667,15.6793333 44.9793333,15.88 44.27,15.88 C43.71,15.88 43.2876667,15.7516667 43.003,15.495 C42.7183333,15.2383333 42.576,14.8673333 42.576,14.382 C42.576,14.214 42.5993333,14.004 42.646,13.752 L42.646,13.752 L43.472,9.58 L42.128,9.58 L41.302,13.738 C41.246,14.046 41.218,14.3306667 41.218,14.592 C41.218,15.376 41.456,15.9873333 41.932,16.426 C42.408,16.8646667 43.0566667,17.084 43.878,17.084 Z M52.544,17.084 C53.5706667,17.084 54.3943333,16.8716667 55.015,16.447 C55.6356667,16.0223333 55.946,15.432 55.946,14.676 C55.946,14.2466667 55.8316667,13.906 55.603,13.654 C55.3743333,13.402 55.0966667,13.22 54.77,13.108 C54.4433333,12.996 54.0233333,12.884 53.51,12.772 C52.9406667,12.6506667 52.5206667,12.527 52.25,12.401 C51.9793333,12.275 51.844,12.0626667 51.844,11.764 C51.844,11.428 52.0073333,11.1596667 52.334,10.959 C52.6606667,10.7583333 53.1273333,10.658 53.734,10.658 C54.1353333,10.658 54.5273333,10.707 54.91,10.805 C55.2926667,10.903 55.6286667,11.05 55.918,11.246 L55.918,11.246 L56.45,10.182 C56.1513333,9.97666667 55.7686667,9.81333333 55.302,9.692 C54.8353333,9.57066667 54.3546667,9.51 53.86,9.51 C53.188,9.51 52.5976667,9.608 52.089,9.804 C51.5803333,10 51.1883333,10.28 50.913,10.644 C50.6376667,11.008 50.5,11.4326667 50.5,11.918 C50.5,12.3566667 50.6166667,12.7043333 50.85,12.961 C51.0833333,13.2176667 51.3656667,13.4043333 51.697,13.521 C52.0283333,13.6376667 52.4553333,13.752 52.978,13.864 C53.538,13.9853333 53.951,14.1066667 54.217,14.228 C54.483,14.3493333 54.616,14.55 54.616,14.83 C54.616,15.1753333 54.4503333,15.4436667 54.119,15.635 C53.7876667,15.8263333 53.3046667,15.922 52.67,15.922 C52.166,15.922 51.683,15.8543333 51.221,15.719 C50.759,15.5836667 50.3833333,15.3993333 50.094,15.166 L50.094,15.166 L49.492,16.23 C49.8,16.482 50.2316667,16.6873333 50.787,16.846 C51.3423333,17.0046667 51.928,17.084 52.544,17.084 Z M59.768,17.084 C60.468,17.084 61.042,16.93 61.49,16.622 L61.49,16.622 L61.21,15.6 C60.8926667,15.8333333 60.538,15.95 60.146,15.95 C59.8193333,15.95 59.5743333,15.8706667 59.411,15.712 C59.2476667,15.5533333 59.166,15.3246667 59.166,15.026 C59.166,14.9046667 59.18,14.774 59.208,14.634 L59.208,14.634 L60.006,10.686 L62.134,10.686 L62.358,9.58 L60.23,9.58 L60.552,7.956 L59.208,7.956 L58.886,9.58 L57.612,9.58 L57.402,10.686 L58.662,10.686 L57.864,14.662 C57.8266667,14.8393333 57.808,15.026 57.808,15.222 C57.808,15.8006667 57.9876667,16.2556667 58.347,16.587 C58.7063333,16.9183333 59.18,17.084 59.768,17.084 Z M69.988,17.112 C70.8,17.112 71.5186667,16.9883333 72.144,16.741 C72.7693333,16.4936667 73.257,16.1413333 73.607,15.684 C73.957,15.2266667 74.132,14.6853333 74.132,14.06 C74.132,13.556 73.999,13.1453333 73.733,12.828 C73.467,12.5106667 73.145,12.2703333 72.767,12.107 C72.389,11.9436667 71.892,11.7686667 71.276,11.582 C70.7813333,11.4326667 70.3916667,11.302 70.107,11.19 C69.8223333,11.078 69.5843333,10.924 69.393,10.728 C69.2016667,10.532 69.106,10.2893333 69.106,10 C69.106,9.47733333 69.344,9.05966667 69.82,8.747 C70.296,8.43433333 70.9353333,8.278 71.738,8.278 C72.242,8.278 72.7203333,8.34333333 73.173,8.474 C73.6256667,8.60466667 74.034,8.80066667 74.398,9.062 L74.398,9.062 L74.958,7.914 C74.5566667,7.65266667 74.083,7.44966667 73.537,7.305 C72.991,7.16033333 72.4146667,7.088 71.808,7.088 C71.0146667,7.088 70.31,7.21166667 69.694,7.459 C69.078,7.70633333 68.5973333,8.05866667 68.252,8.516 C67.9066667,8.97333333 67.734,9.51 67.734,10.126 C67.734,10.6673333 67.8716667,11.1036667 68.147,11.435 C68.4223333,11.7663333 68.7513333,12.016 69.134,12.184 C69.5166667,12.352 70.0206667,12.5293333 70.646,12.716 C71.1406667,12.8653333 71.5233333,12.996 71.794,13.108 C72.0646667,13.22 72.2933333,13.3693333 72.48,13.556 C72.6666667,13.7426667 72.76,13.976 72.76,14.256 C72.76,14.7786667 72.5196667,15.187 72.039,15.481 C71.5583333,15.775 70.9166667,15.922 70.114,15.922 C69.5073333,15.922 68.9193333,15.8216667 68.35,15.621 C67.7806667,15.4203333 67.3093333,15.1473333 66.936,14.802 L66.936,14.802 L66.32,15.922 C66.684,16.2673333 67.2043333,16.552 67.881,16.776 C68.5576667,17 69.26,17.112 69.988,17.112 Z M78.948,17.084 C79.7786667,17.084 80.523,16.895 81.181,16.517 C81.839,16.139 82.3546667,15.6163333 82.728,14.949 C83.1013333,14.2816667 83.288,13.5326667 83.288,12.702 C83.288,12.058 83.1456667,11.4956667 82.861,11.015 C82.5763333,10.5343333 82.1726667,10.1633333 81.65,9.902 C81.1273333,9.64066667 80.516,9.51 79.816,9.51 C78.9853333,9.51 78.2386667,9.699 77.576,10.077 C76.9133333,10.455 76.3953333,10.9753333 76.022,11.638 C75.6486667,12.3006667 75.462,13.0473333 75.462,13.878 C75.462,14.5126667 75.6066667,15.0726667 75.896,15.558 C76.1853333,16.0433333 76.5913333,16.419 77.114,16.685 C77.6366667,16.951 78.248,17.084 78.948,17.084 Z M79.032,15.908 C78.332,15.908 77.7883333,15.7236667 77.401,15.355 C77.0136667,14.9863333 76.82,14.4753333 76.82,13.822 C76.82,13.2153333 76.946,12.674 77.198,12.198 C77.45,11.722 77.7953333,11.351 78.234,11.085 C78.6726667,10.819 79.1673333,10.686 79.718,10.686 C80.4273333,10.686 80.9733333,10.868 81.356,11.232 C81.7386667,11.596 81.93,12.1093333 81.93,12.772 C81.93,13.3786667 81.8063333,13.92 81.559,14.396 C81.3116667,14.872 80.9663333,15.243 80.523,15.509 C80.0796667,15.775 79.5826667,15.908 79.032,15.908 Z M85.71,17 L87.782,6.612 L86.438,6.612 L84.366,17 L85.71,17 Z M91.534,17.084 C92.0566667,17.084 92.5396667,16.9976667 92.983,16.825 C93.4263333,16.6523333 93.816,16.4073333 94.152,16.09 L94.152,16.09 L93.97,17 L95.258,17 L97.33,6.612 L95.986,6.612 L95.146,10.854 C94.9126667,10.4153333 94.565,10.0816667 94.103,9.853 C93.641,9.62433333 93.0926667,9.51 92.458,9.51 C91.6646667,9.51 90.9483333,9.69666667 90.309,10.07 C89.6696667,10.4433333 89.168,10.9613333 88.804,11.624 C88.44,12.2866667 88.258,13.038 88.258,13.878 C88.258,14.5313333 88.398,15.1006667 88.678,15.586 C88.958,16.0713333 89.3453333,16.4423333 89.84,16.699 C90.3346667,16.9556667 90.8993333,17.084 91.534,17.084 Z M91.828,15.908 C91.128,15.908 90.5843333,15.7236667 90.197,15.355 C89.8096667,14.9863333 89.616,14.4753333 89.616,13.822 C89.616,13.2153333 89.742,12.674 89.994,12.198 C90.246,11.722 90.5913333,11.351 91.03,11.085 C91.4686667,10.819 91.9633333,10.686 92.514,10.686 C93.2233333,10.686 93.7693333,10.868 94.152,11.232 C94.5346667,11.596 94.726,12.1093333 94.726,12.772 C94.726,13.3786667 94.6023333,13.92 94.355,14.396 C94.1076667,14.872 93.7623333,15.243 93.319,15.509 C92.8756667,15.775 92.3786667,15.908 91.828,15.908 Z" id="JustSold" fill="#262626"></path>
                </g>
            </g>
        </g>
    </g>
</svg>