<svg xmlns="http://www.w3.org/2000/svg" width="127" height="24" viewBox="0 0 127 24">
    <g fill="none" fill-rule="evenodd">
        <g fill-rule="nonzero">
            <path fill="#FF637B" d="M12 0C5.405 0 0 5.405 0 12s5.405 12 12 12 12-5.405 12-12S18.595 0 12 0z"/>
            <path fill="#E63950" d="M24 12c0 6.595-5.405 12-12 12V0c6.595 0 12 5.405 12 12z"/>
            <path fill="#F2F6FC" d="M12 2.86c-5.034 0-9.14 4.106-9.14 9.14 0 5.034 4.106 9.14 9.14 9.14 5.034 0 9.14-4.106 9.14-9.14 0-5.034-4.106-9.14-9.14-9.14z"/>
            <path fill="#DCE1EB" d="M21.14 12c0 5.034-4.106 9.14-9.14 9.14V2.86c5.034 0 9.14 4.106 9.14 9.14z"/>
            <path fill="#0082FF" d="M12 5.672c-3.487 0-6.328 2.84-6.328 6.328 0 3.487 2.84 6.328 6.328 6.328 3.487 0 6.328-2.84 6.328-6.328 0-3.488-2.84-6.328-6.328-6.328z"/>
            <path fill="#0050C3" d="M18.328 12c0 3.487-2.84 6.328-6.328 6.328V5.672c3.487 0 6.328 2.84 6.328 6.328z"/>
            <path fill="#F2F6FC" d="M16.177 10.65L13.294 10.214 12 7.612 10.706 10.214 7.823 10.65 9.905 12.689 9.427 15.544 12 14.208 14.573 15.544 14.095 12.689z"/>
            <path fill="#DCE1EB" d="M14.095 12.689L14.573 15.544 12 14.208 12 7.612 13.294 10.214 16.177 10.65z"/>
        </g>
        <text fill="#262626" font-family="Montserrat-MediumItalic, Montserrat" font-size="14" font-style="italic" font-weight="500">
            <tspan x="34" y="17">Made in USA</tspan>
        </text>
    </g>
</svg>
