<svg xmlns="http://www.w3.org/2000/svg" width="154" height="23" viewBox="0 0 154 23">
    <g fill="none" fill-rule="evenodd">
        <g fill-rule="nonzero">
            <path fill="#E82934" d="M24 11.241c0 5.87-4.805 10.69-10.932 11.196-.084.007-.156-.06-.156-.142v-1.03c0-.073.058-.134.132-.14 5.366-.492 9.56-4.73 9.56-9.884 0-5.486-4.748-9.932-10.604-9.932-5.856 0-10.603 4.446-10.603 9.932 0 4.838 3.694 8.868 8.584 9.752.868-.949 1.28-3.093 1.401-4.897v-.003c.008-.105-.105-.178-.2-.13l-2.796 1.425c-.054.029-.118-.007-.124-.07-.04-.382-.324-1.42-2.258-.698-.076.029-.144-.058-.102-.13.298-.513.875-1.752-.136-2.288-.058-.032-.064-.116-.01-.154l.925-.662.01-.009c.252-.226.184-.651-.127-.78l-1.984-.815c-.062-.026-.073-.112-.02-.154.363-.288 1.262-1.248-.32-2.797-.065-.063-.006-.175.08-.151.812.223 2.631.507 2.448-1.511-.006-.076.075-.125.134-.082l2.003 1.438c.346.248.808-.061.737-.493l-.419-2.534c-.012-.075.064-.131.128-.093.357.215 1.23.576 1.743-.606l.828-1.907c.03-.07.126-.07.156 0l.828 1.907c.513 1.182 1.386.82 1.744.606.062-.038.14.018.127.093l-.418 2.534c-.072.432.39.741.736.493l2.003-1.438c.06-.043.14.006.134.082-.183 2.018 1.637 1.734 2.448 1.51.086-.023.145.09.08.152-1.582 1.55-.683 2.509-.32 2.797.054.042.042.128-.02.154l-1.984.816c-.31.128-.379.553-.128.78l.011.008.925.662c.054.038.048.122-.01.154-1.011.536-.434 1.775-.135 2.288.042.072-.027.159-.103.13-1.934-.723-2.218.316-2.258.698-.006.063-.07.099-.123.07l-2.92-1.341c-.09-.041-.193.02-.197.116-.007.135-.016.28-.027.433-.093 1.287-.333 3.13-.656 4.665 0 0-.361 1.49-.638 1.739-.252-.014-.356-.57-.603-.598-.35-.038-.695-.091-1.036-.158C4.091 21.18 0 16.658 0 11.24 0 5.033 5.372 0 12 0s12 5.033 12 11.241z"/>
            <g fill="#C7232C">
                <path d="M9.254 5.466l.051-.045c-.02.012-.037.026-.05.045zM19.68 8.68c-.338.093-.85.196-1.321.14-.004.005-.007.01-.012.014-1.582 1.55-.683 2.509-.32 2.797.054.042.042.129-.02.154l-1.985.816c-.311.128-.379.556-.125.781l.01.008.924.66c.053.04.048.124-.01.154-.946.503-.502 1.619-.197 2.18.325-.043.768.01 1.372.236.076.029.145-.058.103-.13-.299-.513-.876-1.751.135-2.289.058-.03.064-.115.01-.153l-.925-.661-.009-.007c-.253-.226-.186-.654.126-.782l1.984-.816c.062-.025.074-.112.02-.154-.363-.288-1.262-1.247.32-2.797.065-.063.006-.175-.08-.152zM12.47 16.596c-.092 1.287-.332 3.13-.655 4.665 0 0-.361 1.49-.638 1.739-.252-.014-.356-.57-.603-.598-.35-.038-.695-.091-1.036-.158 0-.025-.007-.039-.021-.04.173-.497.464-1.211.464-1.211.868-.949 1.28-3.093 1.401-4.897l1.089.5z"/>
                <path d="M12 0c-.246 0-.49.008-.732.022 5.726.3 10.38 4.36 11.192 9.588.094.53.143 1.075.143 1.63 0 .54-.046 1.07-.135 1.585-.713 4.742-4.583 8.533-9.556 9.448v.022c0 .083.072.149.156.142C19.195 21.931 24 17.111 24 11.241 24 5.033 18.628 0 12 0zM.12 9.645C.043 10.167 0 10.7 0 11.241c0 .554.043 1.098.126 1.63.72 4.093 3.627 7.049 7.957 7.83.364.06.709.008.709.008-4.288-1.273-7.395-5.03-7.395-9.468 0-5.255 4.357-9.556 9.872-9.908-.226-.014-.453-.021-.682-.021C5.312 1.312.937 4.92.12 9.645z"/>
            </g>
        </g>
        <text fill="#262626" font-family="Montserrat-MediumItalic, Montserrat" font-size="14" font-style="italic" font-weight="500">
            <tspan x="34" y="17">Made in Canada</tspan>
        </text>
    </g>
</svg>
