<svg xmlns="http://www.w3.org/2000/svg" width="148" height="24" viewBox="0 0 148 24">
    <g fill="none" fill-rule="evenodd">
        <g fill-rule="nonzero">
            <path fill="#36C747" d="M22.62 10.22c-.368-.272-.833-.612-.89-.834.024-.43.147-.849.359-1.223.325-.747.661-1.52.288-2.164-.373-.643-1.222-.748-2.039-.834-.423-.003-.84-.103-1.219-.291-.189-.38-.288-.799-.29-1.223-.092-.817-.186-1.661-.834-2.039-.648-.377-1.422-.047-2.169.283-.375.212-.794.335-1.224.358-.225-.06-.564-.521-.834-.89C13.294.725 12.76 0 11.992 0c-.77 0-1.303.724-1.773 1.362-.273.37-.612.834-.834.891-.43-.026-.849-.148-1.224-.358-.751-.33-1.525-.66-2.166-.29-.641.372-.749 1.223-.84 2.045-.004.423-.103.84-.29 1.219-.379.186-.794.283-1.215.285-.818.092-1.664.187-2.04.835-.376.647-.046 1.421.284 2.169.213.375.335.796.358 1.227-.06.225-.521.565-.89.834C.724 10.69 0 11.223 0 11.993s.724 1.303 1.363 1.773c.37.272.834.612.89.834-.023.43-.146.848-.358 1.223-.326.747-.661 1.52-.288 2.164.373.643 1.222.747 2.039.834.423.003.84.102 1.219.291.188.38.288.799.29 1.223.091.817.186 1.661.834 2.039.647.377 1.416.037 2.163-.288.38-.21.8-.331 1.233-.355.225.06.564.522.834.891.47.638 1.003 1.362 1.773 1.362s1.302-.724 1.773-1.362c.273-.37.612-.834.834-.892.43.025.849.147 1.224.36.747.324 1.52.658 2.163.288.642-.37.749-1.222.84-2.04.003-.423.102-.84.29-1.219.379-.187.796-.286 1.218-.289.818-.091 1.663-.186 2.04-.834.376-.647.036-1.416-.288-2.164-.212-.377-.334-.8-.355-1.232.061-.225.522-.565.891-.834.638-.47 1.363-1.005 1.363-1.773 0-.769-.725-1.304-1.364-1.773z"/>
            <g fill="#FAFAFA">
                <path d="M3.682 5.215c-.164 0-.318-.077-.417-.209l-2.19-2.92v2.607c0 .288-.233.522-.521.522-.288 0-.521-.234-.521-.522V.523C.033.233.266 0 .554 0c.164 0 .319.077.417.209l2.19 2.92V.521c0-.288.233-.521.521-.521.288 0 .522.233.522.521v4.171c0 .225-.144.424-.357.495-.053.018-.109.027-.165.027zM7.853 5.215H5.768c-.288 0-.522-.234-.522-.522V.523c0-.289.234-.522.522-.522h2.085c.288 0 .522.233.522.521 0 .288-.234.522-.522.522H6.29v3.128h1.564c.288 0 .522.234.522.522 0 .287-.234.52-.522.52z" transform="translate(5.181 9.385)"/>
                <path d="M7.853 3.13H5.768c-.288 0-.522-.234-.522-.522 0-.288.234-.521.522-.521h2.085c.288 0 .522.233.522.52 0 .289-.234.522-.522.522zM13.067 5.215c-.225 0-.424-.144-.495-.357l-.548-1.644-.547 1.644c-.067.225-.281.373-.515.356-.232-.009-.43-.17-.486-.394L9.433.649c-.07-.28.1-.563.38-.633.28-.07.563.1.633.38l.608 2.434.476-1.43c.124-.273.446-.394.72-.27.12.054.215.15.27.27l.476 1.43.608-2.434c.07-.28.353-.45.633-.38s.45.353.38.633l-1.043 4.17c-.056.225-.254.386-.486.395h-.02z" transform="translate(5.181 9.385)"/>
            </g>
        </g>
        <text fill="#262626" font-family="Montserrat-MediumItalic, Montserrat" font-size="14" font-style="italic" font-weight="500">
            <tspan x="34" y="17">New &amp; Updated</tspan>
        </text>
    </g>
</svg>
