<svg xmlns="http://www.w3.org/2000/svg" width="127" height="24" viewBox="0 0 127 24">
    <g fill="none" fill-rule="evenodd">
        <path fill="#36C747" fill-rule="nonzero" d="M23.456 2.176c-2.904 0-7.008.245-9.105 2.36-.907.917-1.36 2.41-1.243 4.101.015.224.162.414.374.484.21.07.441.005.585-.166 1.166-1.385 2.616-2.495 4.312-3.299.143-.07.313-.075.468-.02.136.05.243.143.299.263.115.247.078.571-.305.754-.022.01-.042.025-.064.035-.007.003-.016.002-.022.006-4.18 1.982-6.233 5.44-7.166 8.996-.68-4.452-2.117-7.074-3.474-8.683-.982-1.285-1.947-1.966-2.505-2.35-.104-.072-.417-.288-.546-.419-.213-.214-.213-.563 0-.777.212-.214.559-.214.795.024.058.052.15.118.268.197l.097.066c.79.545 2.259 1.558 3.562 3.74.117.194.342.299.561.257.223-.04.397-.212.44-.435.285-1.467.158-3.643-1.138-4.95C7.552.245 3.449 0 .545 0 .245 0 0 .246 0 .55c0 2.931.243 7.073 2.339 9.19.874.882 2.222 1.278 3.562 1.278 1.093 0 2.164-.277 2.985-.755 1.119 2.34 2.013 5.838 2.013 11.187 0 .304.244.55.545.55.3 0 .545-.246.545-.55 0-2.984.506-6.566 2.39-9.514.756.745 2.056 1.217 3.497 1.26.072.003.143.004.214.004 1.463 0 2.757-.463 3.571-1.286C23.758 9.798 24 5.656 24 2.724c.001-.303-.242-.548-.544-.548z"/>
        <text fill="#262626" font-family="Montserrat-MediumItalic, Montserrat" font-size="14" font-style="italic" font-weight="500">
            <tspan x="34" y="16">ECO-friendly</tspan>
        </text>
    </g>
</svg>
