<?xml version="1.0" encoding="UTF-8"?>
<svg width="100px" height="24px" viewBox="0 0 100 24" version="1.1" xmlns="http://www.w3.org/2000/svg" xmlns:xlink="http://www.w3.org/1999/xlink">
    <title>58BA1ECE-BB1D-4E03-848C-B3B063EACCFF</title>
    <g id="ICraft" stroke="none" stroke-width="1" fill="none" fill-rule="evenodd">
        <g id="More-pop-up" transform="translate(-1301.000000, -754.000000)" fill-rule="nonzero">
            <g id="More" transform="translate(0.000000, 220.000000)">
                <g id="Elements/Statuses/sale2" transform="translate(1301.000000, 534.000000)">
                    <g id="commerce-and-shopping">
                        <path d="M22.8538947,11.9782456 L23.9048421,9.23709942 C24.020117,8.93469006 23.9302924,8.59185965 23.6772865,8.38676023 L21.3987368,6.53936842 L20.9376374,3.63953216 C20.8867368,3.31915789 20.6352281,3.0691462 20.3148538,3.01824561 L17.4150175,2.5571462 L15.5691228,0.277099415 C15.3655205,0.0240935673 15.0152047,-0.0657309942 14.7202807,0.0495438596 L11.9776374,1.1019883 L9.23649123,0.0510409357 C8.9325848,-0.0657309942 8.59274854,0.0270877193 8.38764912,0.278596491 L6.54025731,2.55864327 L3.64042105,3.01974269 C3.32154386,3.07064327 3.07003509,3.32215205 3.0191345,3.64102924 L2.55803509,6.5408655 L0.277988304,8.38825731 C0.0264795322,8.59185965 -0.0648421053,8.93469006 0.0504327485,9.23709942 L1.10138012,11.9782456 L0.0504327485,14.7193918 C-0.0663391813,15.0218012 0.0264795322,15.3646316 0.277988304,15.5682339 L2.55803509,17.4141287 L3.0191345,20.3139649 C3.07003509,20.6343392 3.32004678,20.885848 3.64042105,20.9367485 L6.54025731,21.397848 L8.38764912,23.6763977 C8.59274854,23.9309006 8.93557895,24.0207251 9.2379883,23.9039532 L11.9776374,22.8545029 L14.7187836,23.9054503 C14.805614,23.938386 14.8954386,23.9548538 14.9867602,23.9548538 C15.2068304,23.9548538 15.4239064,23.8575439 15.5691228,23.6763977 L17.4150175,21.397848 L20.3148538,20.9367485 C20.6352281,20.885848 20.8867368,20.6343392 20.9376374,20.3139649 L21.3987368,17.4141287 L23.6772865,15.5682339 C23.9302924,15.3631345 24.020117,15.0218012 23.9048421,14.7193918 L22.8538947,11.9782456 Z" id="Path" fill="#C90000"></path>
                        <g id="Group" transform="translate(7.485380, 5.988304)" fill="#FAFAFA">
                            <path d="M2.24664327,4.4928655 C1.0085614,4.4928655 0.00102923977,3.48533333 0.00102923977,2.24725146 C0.00102923977,1.00916959 1.0085614,0.0016374269 2.24664327,0.0016374269 C3.48472515,0.0016374269 4.49225731,1.00916959 4.49225731,2.24725146 C4.49225731,3.48533333 3.48472515,4.4928655 2.24664327,4.4928655 Z M2.24664327,1.49871345 C1.83345029,1.49871345 1.49810526,1.83405848 1.49810526,2.24725146 C1.49810526,2.66044444 1.83345029,2.99578947 2.24664327,2.99578947 C2.65983626,2.99578947 2.99518129,2.66044444 2.99518129,2.24725146 C2.99518129,1.83405848 2.65983626,1.49871345 2.24664327,1.49871345 Z" id="Shape"></path>
                            <path d="M6.73787135,11.9782456 C5.49978947,11.9782456 4.49225731,10.9707135 4.49225731,9.73263158 C4.49225731,8.49454971 5.49978947,7.48701754 6.73787135,7.48701754 C7.97595322,7.48701754 8.98348538,8.49454971 8.98348538,9.73263158 C8.98348538,10.9707135 7.97595322,11.9782456 6.73787135,11.9782456 Z M6.73787135,8.98409357 C6.32617544,8.98409357 5.98933333,9.32093567 5.98933333,9.73263158 C5.98933333,10.1443275 6.32617544,10.4811696 6.73787135,10.4811696 C7.14956725,10.4811696 7.48640936,10.1443275 7.48640936,9.73263158 C7.48640936,9.32093567 7.14956725,8.98409357 6.73787135,8.98409357 Z" id="Shape"></path>
                            <path d="M0.749567251,11.9782456 C0.598362573,11.9782456 0.447157895,11.9333333 0.315415205,11.8390175 C-0.0214269006,11.5979883 -0.0992748538,11.1309006 0.141754386,10.7940585 L7.6271345,0.314526316 C7.86816374,-0.0223157895 8.33525146,-0.100163743 8.67209357,0.140865497 C9.00893567,0.380397661 9.08528655,0.848982456 8.84575439,1.18432749 L1.36037427,11.6638596 C1.21216374,11.8689591 0.983111111,11.9782456 0.749567251,11.9782456 Z" id="Path"></path>
                        </g>
                    </g>
                    <path d="M38.446,17.112 C39.622,17.112 40.6626667,16.8506667 41.568,16.328 C42.4733333,15.8053333 43.1733333,15.096 43.668,14.2 C44.1626667,13.304 44.41,12.31 44.41,11.218 C44.41,10.3966667 44.228,9.67566667 43.864,9.055 C43.5,8.43433333 42.9703333,7.95133333 42.275,7.606 C41.5796667,7.26066667 40.7513333,7.088 39.79,7.088 C38.614,7.088 37.5756667,7.34933333 36.675,7.872 C35.7743333,8.39466667 35.0766667,9.104 34.582,10 C34.0873333,10.896 33.84,11.89 33.84,12.982 C33.84,13.8033333 34.022,14.5243333 34.386,15.145 C34.75,15.7656667 35.2773333,16.2486667 35.968,16.594 C36.6586667,16.9393333 37.4846667,17.112 38.446,17.112 Z M38.572,15.866 C37.508,15.866 36.6866667,15.5976667 36.108,15.061 C35.5293333,14.5243333 35.24,13.8033333 35.24,12.898 C35.24,12.0766667 35.4243333,11.316 35.793,10.616 C36.1616667,9.916 36.682,9.36066667 37.354,8.95 C38.026,8.53933333 38.8006667,8.334 39.678,8.334 C40.742,8.334 41.561,8.60233333 42.135,9.139 C42.709,9.67566667 42.996,10.3966667 42.996,11.302 C42.996,12.1326667 42.814,12.8956667 42.45,13.591 C42.086,14.2863333 41.568,14.8393333 40.896,15.25 C40.224,15.6606667 39.4493333,15.866 38.572,15.866 Z M46.65,17 L47.434,13.08 C47.5926667,12.296 47.9076667,11.7056667 48.379,11.309 C48.8503333,10.9123333 49.45,10.714 50.178,10.714 C50.7473333,10.714 51.1766667,10.8446667 51.466,11.106 C51.7553333,11.3673333 51.9,11.7406667 51.9,12.226 C51.9,12.3846667 51.8766667,12.59 51.83,12.842 L51.83,12.842 L51.004,17 L52.348,17 L53.174,12.842 C53.23,12.534 53.258,12.2446667 53.258,11.974 C53.258,11.19 53.0223333,10.5833333 52.551,10.154 C52.0796667,9.72466667 51.4193333,9.51 50.57,9.51 C49.45,9.51 48.554,9.85066667 47.882,10.532 L47.882,10.532 L48.064,9.58 L46.776,9.58 L45.306,17 L46.65,17 Z M61.812,17.112 C62.624,17.112 63.3426667,16.9883333 63.968,16.741 C64.5933333,16.4936667 65.081,16.1413333 65.431,15.684 C65.781,15.2266667 65.956,14.6853333 65.956,14.06 C65.956,13.556 65.823,13.1453333 65.557,12.828 C65.291,12.5106667 64.969,12.2703333 64.591,12.107 C64.213,11.9436667 63.716,11.7686667 63.1,11.582 C62.6053333,11.4326667 62.2156667,11.302 61.931,11.19 C61.6463333,11.078 61.4083333,10.924 61.217,10.728 C61.0256667,10.532 60.93,10.2893333 60.93,10 C60.93,9.47733333 61.168,9.05966667 61.644,8.747 C62.12,8.43433333 62.7593333,8.278 63.562,8.278 C64.066,8.278 64.5443333,8.34333333 64.997,8.474 C65.4496667,8.60466667 65.858,8.80066667 66.222,9.062 L66.222,9.062 L66.782,7.914 C66.3806667,7.65266667 65.907,7.44966667 65.361,7.305 C64.815,7.16033333 64.2386667,7.088 63.632,7.088 C62.8386667,7.088 62.134,7.21166667 61.518,7.459 C60.902,7.70633333 60.4213333,8.05866667 60.076,8.516 C59.7306667,8.97333333 59.558,9.51 59.558,10.126 C59.558,10.6673333 59.6956667,11.1036667 59.971,11.435 C60.2463333,11.7663333 60.5753333,12.016 60.958,12.184 C61.3406667,12.352 61.8446667,12.5293333 62.47,12.716 C62.9646667,12.8653333 63.3473333,12.996 63.618,13.108 C63.8886667,13.22 64.1173333,13.3693333 64.304,13.556 C64.4906667,13.7426667 64.584,13.976 64.584,14.256 C64.584,14.7786667 64.3436667,15.187 63.863,15.481 C63.3823333,15.775 62.7406667,15.922 61.938,15.922 C61.3313333,15.922 60.7433333,15.8216667 60.174,15.621 C59.6046667,15.4203333 59.1333333,15.1473333 58.76,14.802 L58.76,14.802 L58.144,15.922 C58.508,16.2673333 59.0283333,16.552 59.705,16.776 C60.3816667,17 61.084,17.112 61.812,17.112 Z M70.562,17.084 C71.0846667,17.084 71.5676667,16.9976667 72.011,16.825 C72.4543333,16.6523333 72.844,16.4073333 73.18,16.09 L73.18,16.09 L72.998,17 L74.286,17 L75.756,9.58 L74.412,9.58 L74.16,10.84 C73.9173333,10.4013333 73.5696667,10.07 73.117,9.846 C72.6643333,9.622 72.1206667,9.51 71.486,9.51 C70.6926667,9.51 69.9763333,9.69666667 69.337,10.07 C68.6976667,10.4433333 68.196,10.9613333 67.832,11.624 C67.468,12.2866667 67.286,13.038 67.286,13.878 C67.286,14.5313333 67.426,15.1006667 67.706,15.586 C67.986,16.0713333 68.3733333,16.4423333 68.868,16.699 C69.3626667,16.9556667 69.9273333,17.084 70.562,17.084 Z M70.856,15.908 C70.156,15.908 69.6123333,15.7236667 69.225,15.355 C68.8376667,14.9863333 68.644,14.4753333 68.644,13.822 C68.644,13.2153333 68.77,12.674 69.022,12.198 C69.274,11.722 69.6193333,11.351 70.058,11.085 C70.4966667,10.819 70.9913333,10.686 71.542,10.686 C72.2513333,10.686 72.7973333,10.868 73.18,11.232 C73.5626667,11.596 73.754,12.1093333 73.754,12.772 C73.754,13.3786667 73.6303333,13.92 73.383,14.396 C73.1356667,14.872 72.7903333,15.243 72.347,15.509 C71.9036667,15.775 71.4066667,15.908 70.856,15.908 Z M78.192,17 L80.264,6.612 L78.92,6.612 L76.848,17 L78.192,17 Z M84.296,17.084 C84.8746667,17.084 85.4253333,16.9906667 85.948,16.804 C86.4706667,16.6173333 86.914,16.356 87.278,16.02 L87.278,16.02 L86.704,15.054 C86.4333333,15.3153333 86.0973333,15.523 85.696,15.677 C85.2946667,15.831 84.8653333,15.908 84.408,15.908 C83.624,15.908 83.036,15.7283333 82.644,15.369 C82.252,15.0096667 82.056,14.4846667 82.056,13.794 L82.056,13.794 L82.056,13.71 L88.146,13.71 C88.2113333,13.346 88.244,13.0146667 88.244,12.716 C88.244,11.7266667 87.943,10.945 87.341,10.371 C86.739,9.797 85.934,9.51 84.926,9.51 C84.1326667,9.51 83.4163333,9.69666667 82.777,10.07 C82.1376667,10.4433333 81.6383333,10.9613333 81.279,11.624 C80.9196667,12.2866667 80.74,13.0333333 80.74,13.864 C80.74,14.5173333 80.8846667,15.0866667 81.174,15.572 C81.4633333,16.0573333 81.874,16.4306667 82.406,16.692 C82.938,16.9533333 83.568,17.084 84.296,17.084 Z M86.984,12.73 L82.196,12.73 C82.364,12.0766667 82.686,11.5633333 83.162,11.19 C83.638,10.8166667 84.2073333,10.63 84.87,10.63 C85.542,10.63 86.0716667,10.8143333 86.459,11.183 C86.8463333,11.5516667 87.0213333,12.0673333 86.984,12.73 L86.984,12.73 Z" id="OnSale" fill="#262626"></path>
                </g>
            </g>
        </g>
    </g>
</svg>