<?xml version="1.0" encoding="UTF-8"?>
<svg width="99px" height="24px" viewBox="0 0 99 24" version="1.1" xmlns="http://www.w3.org/2000/svg" xmlns:xlink="http://www.w3.org/1999/xlink">
    <title>559F0AB8-1887-4E5A-8DFA-AFA8FD3C54E9</title>
    <defs>
        <linearGradient x1="98.4504052%" y1="32.4388236%" x2="5.3047617%" y2="68.006043%" id="linearGradient-1">
            <stop stop-color="#36C747" offset="0%"></stop>
            <stop stop-color="#36C747" offset="38.9780405%"></stop>
            <stop stop-color="#C50702" offset="64.1227971%"></stop>
            <stop stop-color="#C90000" offset="100%"></stop>
        </linearGradient>
    </defs>
    <g id="ICraft" stroke="none" stroke-width="1" fill="none" fill-rule="evenodd">
        <g id="More-pop-up" transform="translate(-1580.000000, -711.000000)" fill-rule="nonzero">
            <g id="More" transform="translate(0.000000, 220.000000)">
                <g id="Elements/Statuses/Trending" transform="translate(1580.000000, 491.000000)">
                    <g id="line-chart" transform="translate(0.000000, 5.000000)" fill="url(#linearGradient-1)">
                        <path d="M23.7526788,0.267769007 C23.6099462,0.113219776 23.3933863,0.0334524304 23.1177647,0.0334524304 C23.0931556,0.0334524304 23.0636247,0.0334524304 23.0390156,0.0334524304 C21.6412202,0.0982633984 20.2483466,0.168059826 18.8505511,0.232870794 C18.6635222,0.242841712 18.4075878,0.25281263 18.2057934,0.457216452 C18.1418098,0.52202742 18.0925916,0.596809306 18.0532171,0.68654757 C17.8465009,1.14022435 18.136888,1.43436643 18.2746988,1.57395929 L18.6241477,1.93291234 C18.8653166,2.18218529 19.1114073,2.43145825 19.3574981,2.67574574 L10.9116637,11.235779 L7.11694437,7.39199003 C6.89054089,7.16265891 6.58538836,7.03303698 6.26054858,7.03303698 C5.93570879,7.03303698 5.63547808,7.16265891 5.4090746,7.39199003 L0.354370674,12.507071 C-0.118123558,12.9856751 -0.118123558,13.7584213 0.354370674,14.2370253 L0.58077416,14.4663565 C0.807177647,14.6956876 1.11233017,14.8253095 1.43716996,14.8253095 C1.76200974,14.8253095 2.06224045,14.6956876 2.28864394,14.4663565 L6.26054858,10.443091 L10.0552679,14.2868799 C10.2816714,14.5162111 10.5868239,14.645833 10.9116637,14.645833 C11.2365035,14.645833 11.5367342,14.5162111 11.7680595,14.2868799 L21.2966932,4.63503116 L22.3745706,5.72186124 C22.5025378,5.85148317 22.6797231,6.0309597 22.950423,6.0309597 C23.0636247,6.0309597 23.1768265,6.00104695 23.29495,5.93623598 C23.3736991,5.89136685 23.4426045,5.84151226 23.5016662,5.78168675 C23.7133043,5.56731201 23.7526788,5.29311176 23.7625224,5.07873702 C23.8018969,4.16141255 23.8461933,3.24408808 23.8904896,2.32177815 L23.9544732,0.940805983 C23.9692387,0.651649356 23.9052551,0.427303698 23.7526788,0.267769007 Z" id="Path"></path>
                    </g>
                    <path d="M38.06,17 L39.782,8.418 L43.128,8.418 L43.38,7.2 L35.274,7.2 L35.036,8.418 L38.382,8.418 L36.674,17 L38.06,17 Z M44.108,17 L44.85,13.29 C45.1766667,11.6286667 46.11,10.798 47.65,10.798 C47.7993333,10.798 47.916,10.8026667 48,10.812 L48,10.812 L48.252,9.51 C47.5706667,9.51 46.992,9.60333333 46.516,9.79 C46.04,9.97666667 45.6386667,10.2753333 45.312,10.686 L45.312,10.686 L45.522,9.58 L44.234,9.58 L42.764,17 L44.108,17 Z M52.046,17.084 C52.6246667,17.084 53.1753333,16.9906667 53.698,16.804 C54.2206667,16.6173333 54.664,16.356 55.028,16.02 L55.028,16.02 L54.454,15.054 C54.1833333,15.3153333 53.8473333,15.523 53.446,15.677 C53.0446667,15.831 52.6153333,15.908 52.158,15.908 C51.374,15.908 50.786,15.7283333 50.394,15.369 C50.002,15.0096667 49.806,14.4846667 49.806,13.794 L49.806,13.794 L49.806,13.71 L55.896,13.71 C55.9613333,13.346 55.994,13.0146667 55.994,12.716 C55.994,11.7266667 55.693,10.945 55.091,10.371 C54.489,9.797 53.684,9.51 52.676,9.51 C51.8826667,9.51 51.1663333,9.69666667 50.527,10.07 C49.8876667,10.4433333 49.3883333,10.9613333 49.029,11.624 C48.6696667,12.2866667 48.49,13.0333333 48.49,13.864 C48.49,14.5173333 48.6346667,15.0866667 48.924,15.572 C49.2133333,16.0573333 49.624,16.4306667 50.156,16.692 C50.688,16.9533333 51.318,17.084 52.046,17.084 Z M54.734,12.73 L49.946,12.73 C50.114,12.0766667 50.436,11.5633333 50.912,11.19 C51.388,10.8166667 51.9573333,10.63 52.62,10.63 C53.292,10.63 53.8216667,10.8143333 54.209,11.183 C54.5963333,11.5516667 54.7713333,12.0673333 54.734,12.73 L54.734,12.73 Z M58.402,17 L59.186,13.08 C59.3446667,12.296 59.6596667,11.7056667 60.131,11.309 C60.6023333,10.9123333 61.202,10.714 61.93,10.714 C62.4993333,10.714 62.9286667,10.8446667 63.218,11.106 C63.5073333,11.3673333 63.652,11.7406667 63.652,12.226 C63.652,12.3846667 63.6286667,12.59 63.582,12.842 L63.582,12.842 L62.756,17 L64.1,17 L64.926,12.842 C64.982,12.534 65.01,12.2446667 65.01,11.974 C65.01,11.19 64.7743333,10.5833333 64.303,10.154 C63.8316667,9.72466667 63.1713333,9.51 62.322,9.51 C61.202,9.51 60.306,9.85066667 59.634,10.532 L59.634,10.532 L59.816,9.58 L58.528,9.58 L57.058,17 L58.402,17 Z M69.854,17.084 C70.3766667,17.084 70.8596667,16.9976667 71.303,16.825 C71.7463333,16.6523333 72.136,16.4073333 72.472,16.09 L72.472,16.09 L72.29,17 L73.578,17 L75.65,6.612 L74.306,6.612 L73.466,10.854 C73.2326667,10.4153333 72.885,10.0816667 72.423,9.853 C71.961,9.62433333 71.4126667,9.51 70.778,9.51 C69.9846667,9.51 69.2683333,9.69666667 68.629,10.07 C67.9896667,10.4433333 67.488,10.9613333 67.124,11.624 C66.76,12.2866667 66.578,13.038 66.578,13.878 C66.578,14.5313333 66.718,15.1006667 66.998,15.586 C67.278,16.0713333 67.6653333,16.4423333 68.16,16.699 C68.6546667,16.9556667 69.2193333,17.084 69.854,17.084 Z M70.148,15.908 C69.448,15.908 68.9043333,15.7236667 68.517,15.355 C68.1296667,14.9863333 67.936,14.4753333 67.936,13.822 C67.936,13.2153333 68.062,12.674 68.314,12.198 C68.566,11.722 68.9113333,11.351 69.35,11.085 C69.7886667,10.819 70.2833333,10.686 70.834,10.686 C71.5433333,10.686 72.0893333,10.868 72.472,11.232 C72.8546667,11.596 73.046,12.1093333 73.046,12.772 C73.046,13.3786667 72.9223333,13.92 72.675,14.396 C72.4276667,14.872 72.0823333,15.243 71.639,15.509 C71.1956667,15.775 70.6986667,15.908 70.148,15.908 Z M78.674,8.152 C78.9633333,8.152 79.199,8.06333333 79.381,7.886 C79.563,7.70866667 79.654,7.47533333 79.654,7.186 C79.654,6.97133333 79.5723333,6.787 79.409,6.633 C79.2456667,6.479 79.0426667,6.402 78.8,6.402 C78.52,6.402 78.289,6.493 78.107,6.675 C77.925,6.857 77.834,7.07866667 77.834,7.34 C77.834,7.564 77.9133333,7.75533333 78.072,7.914 C78.2306667,8.07266667 78.4313333,8.152 78.674,8.152 Z M77.484,17 L78.954,9.58 L77.61,9.58 L76.14,17 L77.484,17 Z M81.39,17 L82.174,13.08 C82.3326667,12.296 82.6476667,11.7056667 83.119,11.309 C83.5903333,10.9123333 84.19,10.714 84.918,10.714 C85.4873333,10.714 85.9166667,10.8446667 86.206,11.106 C86.4953333,11.3673333 86.64,11.7406667 86.64,12.226 C86.64,12.3846667 86.6166667,12.59 86.57,12.842 L86.57,12.842 L85.744,17 L87.088,17 L87.914,12.842 C87.97,12.534 87.998,12.2446667 87.998,11.974 C87.998,11.19 87.7623333,10.5833333 87.291,10.154 C86.8196667,9.72466667 86.1593333,9.51 85.31,9.51 C84.19,9.51 83.294,9.85066667 82.622,10.532 L82.622,10.532 L82.804,9.58 L81.516,9.58 L80.046,17 L81.39,17 Z M92.436,19.8 C93.6866667,19.8 94.6736667,19.4966667 95.397,18.89 C96.1203333,18.2833333 96.6126667,17.3173333 96.874,15.992 L96.874,15.992 L98.148,9.58 L96.874,9.58 L96.608,10.938 C96.3746667,10.462 96.013,10.105 95.523,9.867 C95.033,9.629 94.4706667,9.51 93.836,9.51 C93.024,9.51 92.296,9.692 91.652,10.056 C91.008,10.42 90.5063333,10.9193333 90.147,11.554 C89.7876667,12.1886667 89.608,12.8933333 89.608,13.668 C89.608,14.284 89.7456667,14.8206667 90.021,15.278 C90.2963333,15.7353333 90.6836667,16.0853333 91.183,16.328 C91.6823333,16.5706667 92.2586667,16.692 92.912,16.692 C93.9946667,16.692 94.8906667,16.3513333 95.6,15.67 L95.6,15.67 L95.488,16.202 C95.32,17.0233333 95.0003333,17.63 94.529,18.022 C94.0576667,18.414 93.3926667,18.61 92.534,18.61 C91.9646667,18.61 91.4396667,18.5283333 90.959,18.365 C90.4783333,18.2016667 90.0886667,17.9846667 89.79,17.714 L89.79,17.714 L89.048,18.75 C89.4493333,19.086 89.9393333,19.345 90.518,19.527 C91.0966667,19.709 91.736,19.8 92.436,19.8 Z M93.178,15.516 C92.4873333,15.516 91.946,15.3456667 91.554,15.005 C91.162,14.6643333 90.966,14.1906667 90.966,13.584 C90.966,13.0333333 91.0896667,12.5363333 91.337,12.093 C91.5843333,11.6496667 91.9296667,11.3043333 92.373,11.057 C92.8163333,10.8096667 93.318,10.686 93.878,10.686 C94.578,10.686 95.1216667,10.8563333 95.509,11.197 C95.8963333,11.5376667 96.09,12.0066667 96.09,12.604 C96.09,13.164 95.9663333,13.6656667 95.719,14.109 C95.4716667,14.5523333 95.1263333,14.8976667 94.683,15.145 C94.2396667,15.3923333 93.738,15.516 93.178,15.516 Z" id="Trending" fill="#262626"></path>
                </g>
            </g>
        </g>
    </g>
</svg>