<svg xmlns="http://www.w3.org/2000/svg" width="133" height="24" viewBox="0 0 133 24">
    <g fill="none" fill-rule="evenodd">
        <g fill-rule="nonzero">
            <path fill="#7AB4F9" d="M11.323 24c-.249 0-.682-.07-1.572-.677-.566-.386-1.22-.923-1.894-1.552-.917-.858-2.662-2.635-4.034-4.89C1.6 13.223.086 7.356.023 7.108c-.08-.307.055-.63.33-.792 2.367-1.407 3.666-2.897 4.34-3.9.705-1.05.889-1.798.9-1.845C5.66.234 5.955 0 6.303 0h10.04c.348 0 .644.234.71.572.011.047.195.795.9 1.846.674 1.002 1.974 2.492 4.341 3.899.275.163.409.485.33.792-.063.248-1.577 6.115-3.8 9.771-1.373 2.256-3.117 4.033-4.035 4.89-.673.63-1.328 1.167-1.893 1.553-.89.607-1.324.677-1.573.677z"/>
            <path fill="#4558FB" d="M11.324 11.221V24c.249 0 .682-.07 1.572-.677.565-.386 1.22-.923 1.893-1.552.918-.858 2.662-2.635 4.034-4.89 1.018-1.674 1.887-3.81 2.536-5.66H11.324zM11.324 0H6.303c-.348 0-.644.234-.71.572-.011.047-.195.795-.9 1.846C4.019 3.42 2.72 4.91.353 6.317c-.275.163-.41.485-.33.792.034.135.495 1.922 1.264 4.112h10.037V0z"/>
        </g>
        <text fill="#262626" font-family="Montserrat-MediumItalic, Montserrat" font-size="14" font-style="italic" font-weight="500">
            <tspan x="33" y="17">Verified Seller</tspan>
        </text>
    </g>
</svg>
