<svg xmlns="http://www.w3.org/2000/svg" width="37" height="36" viewBox="0 0 37 36">
    <g fill="none" fill-rule="evenodd">
        <g fill="#5F5F5F">
            <g>
                <g>
                    <g>
                        <g>
                            <path d="M35.938 10.552C35.413 4.77 31.32.572 26.196.572c-3.413 0-6.538 1.837-8.296 4.78-1.743-2.98-4.74-4.78-8.098-4.78C4.679.572.585 4.768.06 10.552c-.041.255-.212 1.6.306 3.792.747 3.162 2.47 6.039 4.984 8.317l12.541 11.38 12.757-11.38c2.514-2.278 4.237-5.154 4.984-8.317.518-2.192.347-3.536.306-3.792zm-1.654 3.475c-.681 2.888-2.26 5.52-4.563 7.605L17.9 32.179 6.28 21.635c-2.305-2.09-3.884-4.72-4.566-7.609-.49-2.075-.289-3.247-.288-3.254l.01-.07c.45-5.067 3.968-8.746 8.366-8.746 3.245 0 6.101 1.994 7.457 5.203l.637 1.511.638-1.51c1.334-3.16 4.341-5.203 7.663-5.203 4.397 0 7.915 3.678 8.374 8.811.001.011.203 1.184-.287 3.259z" transform="translate(-1623 -83) translate(1546 28) translate(77 55) translate(0 1.385)"/>
                        </g>
                    </g>
                </g>
            </g>
        </g>
    </g>
</svg>
