<svg xmlns="http://www.w3.org/2000/svg" width="26" height="26" viewBox="0 0 26 26">
    <path fill="#7F13A6" fill-rule="evenodd" d="M23.833 3H2.167C.972 3 0 3.972 0 5.167v15.166C0 21.528.972 22.5 2.167 22.5h21.666c1.195 0 2.167-.972 2.167-2.167V5.167C26 3.972 25.028 3 23.833 3zM2.167 4.083h21.666c.08 0 .15.03.225.046-1.875 1.717-8.095 7.407-10.272 9.368-.17.153-.445.336-.786.336s-.616-.183-.787-.337c-2.176-1.96-8.396-7.65-10.272-9.367.075-.016.146-.046.226-.046zm-1.084 16.25V5.167c0-.106.032-.203.06-.3 1.437 1.314 5.777 5.285 8.59 7.844-2.804 2.409-7.145 6.525-8.592 7.905-.026-.092-.058-.183-.058-.283zm22.75 1.084H2.167c-.087 0-.164-.03-.245-.05 1.496-1.425 5.864-5.565 8.62-7.922l.946.856c.447.403.97.616 1.512.616.543 0 1.065-.213 1.511-.616l.947-.856c2.756 2.357 7.124 6.496 8.62 7.922-.081.02-.158.05-.245.05zm1.084-1.084c0 .1-.032.19-.057.283-1.448-1.381-5.789-5.496-8.594-7.905 2.815-2.56 7.154-6.53 8.59-7.844.029.097.06.194.06.3v15.166z"/>
</svg>
