<svg xmlns="http://www.w3.org/2000/svg" width="37" height="36" viewBox="0 0 37 36">
    <g fill="none" fill-rule="evenodd">
        <g fill="#5F5F5F">
            <g>
                <g>
                    <g>
                        <g>
                            <path d="M26.53 18.38v-5.603c.027-4.273-2.846-7.106-5.315-8.235-.707-.323-1.436-.572-2.177-.757v-.358c0-1.718-1.397-3.115-3.115-3.115-1.718 0-3.115 1.397-3.115 3.115v.412c-.668.18-1.324.415-1.96.709C8.12 5.805 5.355 8.836 5.33 12.773v5.608c0 3.98-1.406 7.395-4.178 10.15-.165.165-.225.407-.155.63.07.222.258.387.488.426L7.4 30.61c1.102.19 2.116.345 3.081.474 1.087 2.13 3.223 3.498 5.555 3.498 2.334 0 4.47-1.368 5.556-3.5.962-.128 1.971-.283 3.067-.472l5.913-1.022c.23-.039.418-.204.488-.426s.01-.465-.155-.63c-2.902-2.885-4.375-6.3-4.375-10.15zM14.054 3.428c0-1.03.839-1.87 1.87-1.87 1.03 0 1.868.84 1.868 1.87v.113c-1.241-.178-2.501-.17-3.738.03v-.143zm1.983 29.908c-1.578 0-3.052-.784-3.998-2.066 1.392.143 2.692.216 3.991.216 1.304 0 2.608-.073 4.007-.218-.947 1.283-2.422 2.068-4 2.068zm8.41-3.955c-1.195.206-2.291.374-3.327.506h-.004c-.457.058-.9.108-1.335.152h-.01c-.399.04-.787.073-1.172.1l-.217.015c-.333.021-.663.039-.99.051-.067.003-.134.007-.201.008-.775.027-1.54.027-2.314.001-.07-.002-.139-.006-.208-.009-.322-.013-.647-.029-.975-.05l-.235-.016c-.373-.027-.75-.058-1.136-.097l-.042-.004c-.432-.043-.871-.093-1.324-.15h-.005c-1.04-.132-2.14-.3-3.34-.508l-4.774-.823C5.32 25.718 6.577 22.3 6.577 18.38v-5.604c.021-3.387 2.422-6.005 4.792-7.098.705-.324 1.436-.567 2.179-.737.006-.001.013 0 .02-.002 1.535-.345 3.169-.36 4.722-.042.008.002.016-.002.024 0 .813.169 1.613.426 2.384.778 2.298 1.05 4.608 3.651 4.586 7.098v5.607c0 3.76 1.355 7.255 3.934 10.176l-4.77.823z" transform="translate(-1700 -83) translate(1546 28) translate(154 55) translate(2.77)"/>
                        </g>
                    </g>
                </g>
            </g>
        </g>
    </g>
</svg>
