<svg xmlns="http://www.w3.org/2000/svg" width="22" height="22" viewBox="0 0 22 22">
    <path fill="#FFB000" d="M21.942 7.987c-.145-.445-.54-.76-1.005-.803l-6.351-.576-2.51-5.876C11.891.3 11.47.022 11 .022c-.47 0-.891.278-1.075.71l-2.51 5.876-6.352.576c-.465.043-.86.359-1.005.803-.145.446-.012.934.34 1.243L5.2 13.44l-1.415 6.234c-.104.458.074.932.454 1.207.205.149.445.223.686.223.207 0 .415-.055.6-.166L11 17.664l5.475 3.274c.402.24.907.218 1.286-.057.38-.275.558-.749.455-1.207L16.8 13.439l4.801-4.209c.352-.309.486-.796.341-1.243z"/>
</svg>
