<svg xmlns="http://www.w3.org/2000/svg" width="26" height="26" viewBox="0 0 26 26">
    <g fill="none" fill-rule="evenodd">
        <g fill="#5F5F5F">
            <g>
                <g>
                    <path d="M9.355 13.843c.299-.21.711-.137.922.162.211.3.138.712-.162.923-.014.009-.084.057-.203.134l-.165.105c-.687.43-2.258 1.33-4.112 1.807-1.144.408-1.271 1.63-1.306 2.748 0 .045-.005.084-.005.123-.01.442.025 1.124.103 1.517.8.451 3.936 2.017 8.657 2.017 4.741 0 7.857-1.561 8.652-2.013.079-.392.108-1.074.103-1.516-.004-.04-.004-.079-.004-.123-.035-1.119-.162-2.34-1.306-2.748-2.444-.628-4.397-1.987-4.48-2.046-.3-.211-.373-.624-.162-.923.21-.3.623-.373.922-.162l.063.043.102.067c.5.324 2.077 1.278 3.909 1.745l.049.015c2.13.726 2.193 2.998 2.223 3.97 0 .044.005.083.005.123v.014c.005.256.01 1.566-.236 2.219-.049.127-.142.235-.255.309-.147.093-3.676 2.346-9.58 2.346s-9.432-2.248-9.58-2.346c-.117-.074-.205-.182-.255-.31-.208-.525-.246-1.47-.25-1.956v-.281c.005-.04.005-.079.005-.123.03-.967.093-3.239 2.223-3.97l.05-.015c2.222-.564 4.053-1.84 4.073-1.855zM13.133 1c.992.02 1.88.255 2.64.692 1.022.584 2.258 1.835 2.38 4.451.035.349.35 4-1.54 6.13-.859.967-2.022 1.472-3.46 1.497h-.157c-1.438-.025-2.601-.53-3.455-1.497-1.89-2.13-1.575-5.781-1.54-6.13.122-2.635 1.378-3.887 2.409-4.47C11.435 1.087 12.505 1 13.05 1zm-.029 1.33h-.059c-1.07 0-3.568.378-3.73 3.897 0 .01-.005.024-.005.039-.004.03-.338 3.381 1.218 5.128.613.697 1.442 1.04 2.522 1.05h.05c1.084-.01 1.908-.353 2.526-1.05 1.561-1.757 1.218-5.094 1.213-5.128-.005-.01-.005-.025-.005-.04-.152-3.327-2.405-3.867-3.73-3.896z" transform="translate(-329 -12) translate(282 10) translate(47 2)"/>
                </g>
            </g>
        </g>
    </g>
</svg>
